<svg width="1001" height="224" viewBox="0 0 1001 224" fill="none" xmlns="http://www.w3.org/2000/svg">
<rect width="14.9582" height="65.0533" rx="7.47908" transform="matrix(0.970193 -0.242333 0.241512 0.970398 446.31 82.787)" fill="#6BAAFF"/>
<path d="M466.255 92.841L488.399 87.3099C490.511 86.7822 492.65 88.0674 493.176 90.1804V90.1804C493.702 92.2934 492.416 94.434 490.303 94.9617L468.159 100.493L466.255 92.841Z" fill="#6BAAFF"/>
<path d="M473.301 121.153L495.446 115.622C497.558 115.094 499.697 116.379 500.223 118.492V118.492C500.749 120.605 499.463 122.746 497.35 123.274L475.206 128.805L473.301 121.153Z" fill="#6BAAFF"/>
<path d="M420.554 122.746C417.267 109.54 425.306 96.1607 438.51 92.8628L449.441 90.1322L461.344 137.956L450.412 140.687C437.209 143.985 423.841 135.952 420.554 122.746V122.746Z" fill="#6BAAFF"/>
<path d="M412.152 124.845C410.968 120.091 413.862 115.274 418.616 114.087L419.557 113.852L423.842 131.069L422.901 131.304C418.147 132.491 413.335 129.599 412.152 124.845V124.845Z" fill="#6BAAFF"/>
<path d="M441.75 117.046L440.132 109.323L459.721 115.097L445.569 116.092L447.64 124.413L426.953 117.491L441.75 117.046Z" fill="#FBFBFB"/>
<rect width="14.9582" height="65.0533" rx="7.47908" transform="matrix(-0.970193 0.242333 0.241512 0.970398 528.418 62.2781)" fill="#6BAAFF"/>
<path d="M569.886 85.4464C566.599 72.2401 553.231 64.2079 540.028 67.5058L527.784 70.5641L539.686 118.388L551.93 115.33C565.134 112.032 573.173 98.6526 569.886 85.4464V85.4464Z" fill="#6BAAFF"/>
<path d="M578.288 83.3475C577.105 78.5933 572.292 75.7017 567.539 76.8889L566.598 77.124L570.883 94.3406L571.824 94.1055C576.577 92.9183 579.471 88.1017 578.288 83.3475V83.3475Z" fill="#6BAAFF"/>
<rect width="3.14909" height="25.6271" rx="1.57454" transform="matrix(0.970193 -0.242333 0.241512 0.970398 537.953 80.2156)" fill="#FBFBFB"/>
<rect width="2.75545" height="21.6844" rx="1.37773" transform="matrix(0.970193 -0.242333 0.241512 0.970398 544.54 80.6023)" fill="#FBFBFB"/>
<rect width="2.36182" height="17.7418" rx="1.18091" transform="matrix(0.970193 -0.242333 0.241512 0.970398 550.745 81.0844)" fill="#FBFBFB"/>
<path d="M572.446 84.7676C668.562 80.2134 655.951 16.2656 736.805 124.591C817.659 232.915 882.927 -8.78308 889.096 152.241C889.096 271.626 990.732 179.892 990.732 179.892" stroke="#6BAAFF" stroke-width="6"/>
<path d="M414.199 124.089C318.083 128.643 330.694 192.591 249.84 84.2659C168.986 -24.0591 103.718 217.639 97.5488 56.6155C97.5488 -62.7699 3.05664 84.2658 3.05664 84.2658" stroke="#6BAAFF" stroke-width="6"/>
</svg>
