<svg width="679" height="149" viewBox="0 0 679 149" fill="none" xmlns="http://www.w3.org/2000/svg">
<rect width="5.98327" height="26.0213" rx="2.99163" transform="matrix(0.970193 -0.242333 0.241512 0.970398 328.134 71.1147)" fill="#6BAAFF"/>
<path d="M336.112 75.1364L344.97 72.924C345.815 72.7129 346.67 73.227 346.881 74.0721V74.0721C347.091 74.9173 346.577 75.7736 345.732 75.9847L336.874 78.1971L336.112 75.1364Z" fill="#6BAAFF"/>
<path d="M338.931 86.4611L347.789 84.2487C348.634 84.0376 349.489 84.5517 349.7 85.3969V85.3969C349.91 86.2421 349.395 87.0983 348.55 87.3094L339.693 89.5219L338.931 86.4611Z" fill="#6BAAFF"/>
<path d="M317.832 87.0985C316.517 81.816 319.733 76.4643 325.014 75.1451L329.387 74.0529L334.148 93.1825L329.775 94.2747C324.494 95.5939 319.147 92.381 317.832 87.0985V87.0985Z" fill="#6BAAFF"/>
<path d="M314.471 87.9381C313.998 86.0364 315.155 84.1098 317.057 83.6349L317.433 83.5408L319.147 90.4275L318.771 90.5215C316.869 90.9964 314.944 89.8398 314.471 87.9381V87.9381Z" fill="#6BAAFF"/>
<path d="M326.31 84.8183L325.663 81.729L333.499 84.0387L327.838 84.4368L328.666 87.7653L320.391 84.9963L326.31 84.8183Z" fill="#FBFBFB"/>
<rect width="5.98327" height="26.0213" rx="2.99163" transform="matrix(-0.970193 0.242333 0.241512 0.970398 360.978 62.9112)" fill="#6BAAFF"/>
<path d="M377.565 72.1785C376.25 66.896 370.903 63.6831 365.622 65.0023L360.724 66.2256L365.485 85.3552L370.383 84.1319C375.664 82.8127 378.88 77.461 377.565 72.1785V72.1785Z" fill="#6BAAFF"/>
<path d="M380.925 71.339C380.452 69.4373 378.527 68.2806 376.626 68.7555L376.249 68.8495L377.963 75.7362L378.34 75.6422C380.241 75.1673 381.399 73.2406 380.925 71.339V71.339Z" fill="#6BAAFF"/>
<rect width="1.25964" height="10.2508" rx="0.629818" transform="matrix(0.970193 -0.242333 0.241512 0.970398 364.792 70.0862)" fill="#FBFBFB"/>
<rect width="1.10218" height="8.67378" rx="0.55109" transform="matrix(0.970193 -0.242333 0.241512 0.970398 367.426 70.2409)" fill="#FBFBFB"/>
<rect width="0.944726" height="7.09673" rx="0.472363" transform="matrix(0.970193 -0.242333 0.241512 0.970398 369.908 70.4337)" fill="#FBFBFB"/>
<path d="M378.589 71.907C417.035 70.0853 411.991 44.5062 444.332 87.8362C476.674 131.166 502.781 34.4867 505.249 98.8963C508.433 182 677.51 45.5 677.51 45.5" stroke="#6BAAFF" stroke-width="2"/>
<path d="M315.29 87.6355C276.843 89.4572 281.888 115.036 249.546 71.7064C217.204 28.3764 147.467 133.41 144.999 69C144.999 10.8538 101.013 152.5 2.01158 92.5" stroke="#6BAAFF" stroke-width="2"/>
</svg>
