<svg width="1542" height="344" viewBox="0 0 1542 344" fill="none" xmlns="http://www.w3.org/2000/svg">
<rect width="23.0327" height="100.17" rx="11.5164" transform="matrix(0.970193 -0.242333 0.241512 0.970398 687.693 127.476)" fill="#6BAAFF"/>
<path d="M718.404 142.958L752.502 134.441C755.755 133.628 759.048 135.607 759.858 138.861V138.861C760.668 142.114 758.687 145.411 755.434 146.223L721.336 154.74L718.404 142.958Z" fill="#6BAAFF"/>
<path d="M729.254 186.552L763.352 178.035C766.605 177.223 769.899 179.202 770.709 182.455V182.455C771.518 185.709 769.538 189.005 766.285 189.818L732.187 198.335L729.254 186.552Z" fill="#6BAAFF"/>
<path d="M648.033 189.006C642.972 168.671 655.351 148.069 675.682 142.991L692.515 138.787L710.842 212.426L694.009 216.631C673.678 221.709 653.094 209.341 648.033 189.006V189.006Z" fill="#6BAAFF"/>
<path d="M635.095 192.238C633.273 184.917 637.73 177.501 645.049 175.673L646.498 175.311L653.096 201.821L651.647 202.183C644.328 204.011 636.917 199.559 635.095 192.238V192.238Z" fill="#6BAAFF"/>
<path d="M680.671 180.229L678.18 168.336L708.344 177.227L686.552 178.76L689.74 191.573L657.887 180.914L680.671 180.229Z" fill="#FBFBFB"/>
<rect width="23.0327" height="100.17" rx="11.5164" transform="matrix(-0.970193 0.242333 0.241512 0.970398 814.124 95.8965)" fill="#6BAAFF"/>
<path d="M877.977 131.571C872.916 111.236 852.332 98.868 832.001 103.946L813.147 108.655L831.475 182.295L850.328 177.586C870.659 172.508 883.038 151.906 877.977 131.571V131.571Z" fill="#6BAAFF"/>
<path d="M890.914 128.339C889.092 121.019 881.682 116.566 874.363 118.394L872.913 118.756L879.511 145.267L880.96 144.905C888.28 143.077 892.736 135.66 890.914 128.339V128.339Z" fill="#6BAAFF"/>
<rect width="4.849" height="39.4608" rx="2.4245" transform="matrix(0.970193 -0.242333 0.241512 0.970398 828.806 123.517)" fill="#FBFBFB"/>
<rect width="4.24287" height="33.3899" rx="2.12144" transform="matrix(0.970193 -0.242333 0.241512 0.970398 838.948 124.112)" fill="#FBFBFB"/>
<rect width="3.63675" height="27.319" rx="1.81837" transform="matrix(0.970193 -0.242333 0.241512 0.970398 848.502 124.855)" fill="#FBFBFB"/>
<path d="M881.919 130.526C1029.92 123.513 1010.5 25.0459 1135 191.846C1259.5 358.646 1360 -13.5243 1369.5 234.422C1369.5 418.253 1526 277 1526 277" stroke="#6BAAFF" stroke-width="10"/>
<path d="M638.248 191.073C490.248 198.086 509.667 296.553 385.167 129.753C260.667 -37.0464 160.167 335.124 150.667 87.1772C150.667 -96.6537 5.16677 129.753 5.16677 129.753" stroke="#6BAAFF" stroke-width="10"/>
</svg>
