<svg width="81" height="93" viewBox="0 0 81 93" fill="none" xmlns="http://www.w3.org/2000/svg">
<g filter="url(#filter0_i_127_1031)">
<path d="M49.7421 68.9552L24.5002 63.4502C23.4334 63.3284 22.6531 62.8595 22.7788 62.4158C22.9045 61.9722 23.8934 61.7053 24.9602 61.8271L50.202 67.3321C51.2688 67.4539 52.0492 67.9228 51.9235 68.3665C51.7977 68.8101 50.8088 69.077 49.7421 68.9552Z" fill="#F9C339"/>
<path d="M60.0817 35.4126L50.4543 38.4351C49.1785 38.8375 47.5093 38.0045 47.1159 36.769L43.889 26.5672C43.3461 24.8096 40.5676 24.1387 39.6648 25.5473L34.3324 33.6638C33.6846 34.6665 31.9428 34.676 30.8262 33.6773L22.382 26.2914C20.6907 24.8361 18.1328 25.6954 18.6859 27.5677L25.6733 51.0356C25.9069 51.8398 26.7115 52.5201 27.6602 52.7492L49.1879 57.947C50.1367 58.1761 51.0509 57.8921 51.4478 57.2587L63.2548 38.3288C64.2152 36.8219 61.9842 34.8063 60.0817 35.4126ZM44.9577 49.0173L33.663 46.2902C32.7368 46.0666 32.0391 45.2625 32.1239 44.5164C32.2087 43.7704 33.0471 43.3371 33.9733 43.5608L45.2679 46.2878C46.1941 46.5114 46.8918 47.3156 46.807 48.0616C46.7222 48.8077 45.8838 49.2409 44.9577 49.0173Z" fill="#F9C339"/>
</g>
<defs>
<filter id="filter0_i_127_1031" x="18.6091" y="24.7876" width="44.8762" height="45.1973" filterUnits="userSpaceOnUse" color-interpolation-filters="sRGB">
<feFlood flood-opacity="0" result="BackgroundImageFix"/>
<feBlend mode="normal" in="SourceGraphic" in2="BackgroundImageFix" result="shape"/>
<feColorMatrix in="SourceAlpha" type="matrix" values="0 0 0 0 0 0 0 0 0 0 0 0 0 0 0 0 0 0 127 0" result="hardAlpha"/>
<feOffset dy="2"/>
<feGaussianBlur stdDeviation="0.5"/>
<feComposite in2="hardAlpha" operator="arithmetic" k2="-1" k3="1"/>
<feColorMatrix type="matrix" values="0 0 0 0 0.983333 0 0 0 0 0.941542 0 0 0 0 0.565417 0 0 0 1 0"/>
<feBlend mode="normal" in2="shape" result="effect1_innerShadow_127_1031"/>
</filter>
</defs>
</svg>
