<svg width="122" height="89" viewBox="0 0 122 89" fill="none" xmlns="http://www.w3.org/2000/svg">
<rect x="27.2356" y="76.5439" width="2.7586" height="11.9781" rx="1.3793" fill="#FBFBFB"/>
<path d="M30.3572 79.23H34.5677C34.9686 79.23 35.2936 79.555 35.2936 79.9559C35.2936 80.3569 34.9686 80.6819 34.5677 80.6819H30.3572V79.23Z" fill="#FBFBFB"/>
<path d="M30.3572 84.6021H34.5677C34.9686 84.6021 35.2936 84.9271 35.2936 85.328C35.2936 85.7289 34.9686 86.0539 34.5677 86.0539H30.3572V84.6021Z" fill="#FBFBFB"/>
<path d="M20.8464 82.533C20.8464 80.0272 22.8778 77.9958 25.3836 77.9958H27.4688V87.0702H25.3836C22.8778 87.0702 20.8464 85.0388 20.8464 82.533Z" fill="#FBFBFB"/>
<path d="M19.2493 82.533C19.2493 81.6309 19.9806 80.8997 20.8826 80.8997H21.0641V84.1664H20.8826C19.9806 84.1664 19.2493 83.4351 19.2493 82.533Z" fill="#FBFBFB"/>
<rect width="2.7586" height="11.9781" rx="1.3793" transform="matrix(-1 0 0 1 42.6365 76.5439)" fill="#FBFBFB"/>
<path d="M49.0256 82.533C49.0256 80.0272 46.9943 77.9958 44.4885 77.9958H42.1538V87.0702H44.4885C46.9943 87.0702 49.0256 85.0388 49.0256 82.533Z" fill="#FBFBFB"/>
<path d="M50.6228 82.533C50.6228 81.6309 49.8915 80.8997 48.9894 80.8997H48.8079V84.1664H48.9894C49.8915 84.1664 50.6228 83.4351 50.6228 82.533Z" fill="#FBFBFB"/>
<path d="M48.8617 82.533C63.1689 79.5385 62.8362 91.5166 81.8016 80.8694C100.767 70.2221 113.411 88.1893 120.398 71.2203" stroke="#FBFBFB" stroke-width="2"/>
<path d="M14.9239 1.68078C-6.24663 11.2323 25.5712 32.6242 8.93487 57.2459C-7.70141 81.8676 9.14369 82.8658 20.9129 82.8658" stroke="#FBFBFB" stroke-width="2"/>
</svg>
