<svg width="183" height="187" viewBox="0 0 183 187" fill="none" xmlns="http://www.w3.org/2000/svg">
<rect x="40.8843" y="168.337" width="4.14545" height="18" rx="2.07273" fill="#6BAAFF"/>
<path d="M45.5752 172.373H51.9025C52.505 172.373 52.9934 172.861 52.9934 173.464V173.464C52.9934 174.066 52.505 174.555 51.9025 174.555H45.5752V172.373Z" fill="#6BAAFF"/>
<path d="M45.5752 180.446H51.9025C52.505 180.446 52.9934 180.934 52.9934 181.537V181.537C52.9934 182.139 52.505 182.628 51.9025 182.628H45.5752V180.446Z" fill="#6BAAFF"/>
<path d="M31.2832 177.337C31.2832 173.571 34.3358 170.518 38.1014 170.518H41.2349V184.155H38.1014C34.3358 184.155 31.2832 181.102 31.2832 177.337V177.337Z" fill="#6BAAFF"/>
<path d="M28.8831 177.337C28.8831 175.981 29.982 174.882 31.3376 174.882H31.6103V179.791H31.3376C29.982 179.791 28.8831 178.692 28.8831 177.337V177.337Z" fill="#6BAAFF"/>
<rect width="4.14545" height="18" rx="2.07273" transform="matrix(-1 0 0 1 64.0281 168.337)" fill="#6BAAFF"/>
<path d="M73.6294 177.337C73.6294 173.571 70.5768 170.518 66.8112 170.518H63.3028V184.155H66.8112C70.5768 184.155 73.6294 181.102 73.6294 177.337V177.337Z" fill="#6BAAFF"/>
<path d="M76.0293 177.337C76.0293 175.981 74.9304 174.882 73.5748 174.882H73.302V179.791H73.5748C74.9304 179.791 76.0293 178.692 76.0293 177.337V177.337Z" fill="#6BAAFF"/>
<path d="M73.383 177.337C94.883 172.837 94.3831 190.837 122.883 174.837C151.383 158.837 170.383 185.837 180.883 160.337" stroke="#6BAAFF" stroke-width="2"/>
<path d="M22.3832 1.5C-9.43058 15.8535 38.3833 102.337 13.3833 139.337C-11.6167 176.337 13.6971 177.837 31.3832 177.837" stroke="#6BAAFF" stroke-width="2"/>
</svg>
