<svg width="183" height="187" viewBox="0 0 183 187" fill="none" xmlns="http://www.w3.org/2000/svg">
<rect x="40.6519" y="168.337" width="4.14545" height="18" rx="2.07273" fill="#FBFBFB"/>
<path d="M45.3428 172.373H51.67C52.2725 172.373 52.761 172.861 52.761 173.464V173.464C52.761 174.066 52.2725 174.555 51.67 174.555H45.3428V172.373Z" fill="#FBFBFB"/>
<path d="M45.3428 180.446H51.67C52.2725 180.446 52.761 180.934 52.761 181.537V181.537C52.761 182.139 52.2725 182.628 51.67 182.628H45.3428V180.446Z" fill="#FBFBFB"/>
<path d="M31.0508 177.337C31.0508 173.571 34.1034 170.518 37.869 170.518H41.0025V184.155H37.869C34.1034 184.155 31.0508 181.102 31.0508 177.337V177.337Z" fill="#FBFBFB"/>
<path d="M28.6506 177.337C28.6506 175.981 29.7496 174.882 31.1052 174.882H31.3779V179.791H31.1052C29.7496 179.791 28.6506 178.692 28.6506 177.337V177.337Z" fill="#FBFBFB"/>
<rect width="4.14545" height="18" rx="2.07273" transform="matrix(-1 0 0 1 63.7957 168.337)" fill="#FBFBFB"/>
<path d="M73.397 177.337C73.397 173.571 70.3444 170.518 66.5788 170.518H63.0704V184.155H66.5788C70.3444 184.155 73.397 181.102 73.397 177.337V177.337Z" fill="#FBFBFB"/>
<path d="M75.7969 177.337C75.7969 175.981 74.6979 174.882 73.3423 174.882H73.0696V179.791H73.3423C74.6979 179.791 75.7969 178.692 75.7969 177.337V177.337Z" fill="#FBFBFB"/>
<path d="M73.1506 177.337C94.6506 172.837 94.1506 190.837 122.651 174.837C151.151 158.837 170.151 185.837 180.651 160.337" stroke="#FBFBFB" stroke-width="2"/>
<path d="M22.1508 1.5C-9.663 15.8535 38.1509 102.337 13.1509 139.337C-11.8491 176.337 13.4647 177.837 31.1508 177.837" stroke="#FBFBFB" stroke-width="2"/>
</svg>
