<svg width="85" height="128" viewBox="0 0 85 128" fill="none" xmlns="http://www.w3.org/2000/svg">
<path d="M21.312 87.6C16.704 87.6 12.992 86.1067 10.176 83.12C7.40267 80.0907 6.016 75.7173 6.016 70C6.016 63.8133 7.53067 57.8827 10.56 52.208C13.632 46.4907 17.3653 41.8827 21.76 38.384C26.1973 34.8427 30.208 33.072 33.792 33.072C35.2427 33.072 36.3733 33.3493 37.184 33.904C38.0373 34.416 38.7627 35.376 39.36 36.784C36.2453 37.936 33.28 39.3653 30.464 41.072C27.6907 42.7787 24.9173 45.2107 22.144 48.368C19.4133 51.5253 17.0667 55.536 15.104 60.4H15.488C17.28 58.0107 19.1787 56.3467 21.184 55.408C23.1893 54.4267 25.3227 53.936 27.584 53.936C30.4 53.936 32.8107 54.576 34.816 55.856C36.864 57.136 38.4 58.8853 39.424 61.104C40.4907 63.3227 41.024 65.8613 41.024 68.72C41.024 72.2187 40.1067 75.4187 38.272 78.32C36.48 81.2213 34.0693 83.504 31.04 85.168C28.0107 86.7893 24.768 87.6 21.312 87.6ZM22.272 82.608C23.8507 82.608 25.4507 82.0747 27.072 81.008C28.6933 79.9413 30.0587 78.3627 31.168 76.272C32.2773 74.1387 32.832 71.6 32.832 68.656C32.832 65.9253 32.1493 63.6427 30.784 61.808C29.4187 59.9307 27.1573 58.992 24 58.992C22.5493 58.992 21.056 59.504 19.52 60.528C17.984 61.552 16.704 63.0453 15.68 65.008C14.656 66.9707 14.144 69.3173 14.144 72.048C14.144 75.0347 14.784 77.552 16.064 79.6C17.344 81.6053 19.4133 82.608 22.272 82.608ZM60.677 87.6C56.069 87.6 52.357 86.1067 49.541 83.12C46.7677 80.0907 45.381 75.7173 45.381 70C45.381 63.8133 46.8957 57.8827 49.925 52.208C52.997 46.4907 56.7303 41.8827 61.125 38.384C65.5623 34.8427 69.573 33.072 73.157 33.072C74.6077 33.072 75.7383 33.3493 76.549 33.904C77.4023 34.416 78.1277 35.376 78.725 36.784C75.6103 37.936 72.645 39.3653 69.829 41.072C67.0557 42.7787 64.2823 45.2107 61.509 48.368C58.7783 51.5253 56.4317 55.536 54.469 60.4H54.853C56.645 58.0107 58.5437 56.3467 60.549 55.408C62.5543 54.4267 64.6877 53.936 66.949 53.936C69.765 53.936 72.1757 54.576 74.181 55.856C76.229 57.136 77.765 58.8853 78.789 61.104C79.8557 63.3227 80.389 65.8613 80.389 68.72C80.389 72.2187 79.4717 75.4187 77.637 78.32C75.845 81.2213 73.4343 83.504 70.405 85.168C67.3757 86.7893 64.133 87.6 60.677 87.6ZM61.637 82.608C63.2157 82.608 64.8157 82.0747 66.437 81.008C68.0583 79.9413 69.4237 78.3627 70.533 76.272C71.6423 74.1387 72.197 71.6 72.197 68.656C72.197 65.9253 71.5143 63.6427 70.149 61.808C68.7837 59.9307 66.5223 58.992 63.365 58.992C61.9143 58.992 60.421 59.504 58.885 60.528C57.349 61.552 56.069 63.0453 55.045 65.008C54.021 66.9707 53.509 69.3173 53.509 72.048C53.509 75.0347 54.149 77.552 55.429 79.6C56.709 81.6053 58.7783 82.608 61.637 82.608Z" fill="#1E56A0"/>
<path d="M10.176 83.12L4.27532 88.522L4.31499 88.5654L4.35529 88.6081L10.176 83.12ZM10.56 52.208L3.51286 48.4215L3.50774 48.431L3.50265 48.4405L10.56 52.208ZM21.76 38.384L26.7427 44.6428L26.7502 44.6368L21.76 38.384ZM37.184 33.904L32.6665 40.5065L32.8634 40.6412L33.068 40.7639L37.184 33.904ZM39.36 36.784L42.1352 44.2872L49.9994 41.3785L46.7247 33.6596L39.36 36.784ZM30.464 41.072L26.3176 34.2304L26.2944 34.2445L26.2712 34.2587L30.464 41.072ZM22.144 48.368L16.1335 43.0885L16.1132 43.1116L16.0931 43.1348L22.144 48.368ZM15.104 60.4L7.6852 57.4064L3.2492 68.4H15.104V60.4ZM15.488 60.4V68.4H19.488L21.888 65.2L15.488 60.4ZM21.184 55.408L24.5755 62.6535L24.6382 62.6242L24.7004 62.5937L21.184 55.408ZM34.816 55.856L30.5117 62.5994L30.5438 62.6198L30.576 62.64L34.816 55.856ZM39.424 61.104L32.1603 64.4565L32.1867 64.5136L32.214 64.5704L39.424 61.104ZM38.272 78.32L31.5105 74.0443L31.4878 74.0801L31.4656 74.1161L38.272 78.32ZM31.04 85.168L34.815 92.2213L34.8534 92.2008L34.8916 92.1798L31.04 85.168ZM27.072 81.008L22.6751 74.3247L22.6751 74.3247L27.072 81.008ZM31.168 76.272L38.2348 80.0217L38.2504 79.9923L38.2657 79.9628L31.168 76.272ZM30.784 61.808L24.3141 66.5134L24.3399 66.5489L24.3661 66.5841L30.784 61.808ZM19.52 60.528L15.0824 53.8716L15.0824 53.8716L19.52 60.528ZM15.68 65.008L8.58732 61.3075L8.58732 61.3075L15.68 65.008ZM16.064 79.6L9.28001 83.84L9.30017 83.8722L9.32062 83.9043L16.064 79.6ZM21.312 79.6C18.6096 79.6 17.1084 78.8109 15.9967 77.6319L4.35529 88.6081C8.87563 93.4024 14.7984 95.6 21.312 95.6V79.6ZM16.0767 77.718C15.1047 76.6563 14.016 74.5046 14.016 70H-1.984C-1.984 76.9301 -0.299359 83.5251 4.27532 88.522L16.0767 77.718ZM14.016 70C14.016 65.1806 15.1814 60.5386 17.6174 55.9755L3.50265 48.4405C-0.12008 55.2268 -1.984 62.4461 -1.984 70H14.016ZM17.6071 55.9945C20.2449 51.0854 23.3184 47.369 26.7427 44.6428L16.7773 32.1252C11.4123 36.3964 7.01914 41.8959 3.51286 48.4215L17.6071 55.9945ZM26.7502 44.6368C30.5457 41.6077 32.8123 41.072 33.792 41.072V25.072C27.6037 25.072 21.849 28.0776 16.7698 32.1312L26.7502 44.6368ZM33.792 41.072C34.0252 41.072 34.0112 41.096 33.8222 41.0497C33.623 41.0008 33.1865 40.8622 32.6665 40.5065L41.7015 27.3015C39.065 25.4977 36.1272 25.072 33.792 25.072V41.072ZM33.068 40.7639C32.4525 40.3946 32.1145 40.002 31.9851 39.8307C31.8622 39.6681 31.8874 39.654 31.9953 39.9084L46.7247 33.6596C45.7994 31.4787 44.1949 28.781 41.3 27.0441L33.068 40.7639ZM36.5848 29.2808C32.9972 30.6077 29.5723 32.2579 26.3176 34.2304L34.6104 47.9136C36.9877 46.4728 39.4935 45.2643 42.1352 44.2872L36.5848 29.2808ZM26.2712 34.2587C22.6549 36.4841 19.2886 39.4964 16.1335 43.0885L28.1545 53.6475C30.5461 50.9249 32.7264 49.0732 34.6568 47.8853L26.2712 34.2587ZM16.0931 43.1348C12.6602 47.1041 9.89663 51.9259 7.6852 57.4064L22.5228 63.3936C24.2367 59.1461 26.1665 55.9466 28.1949 53.6012L16.0931 43.1348ZM15.104 68.4H15.488V52.4H15.104V68.4ZM21.888 65.2C23.1556 63.5099 24.1001 62.8761 24.5755 62.6535L17.7925 48.1625C14.2572 49.8173 11.4044 52.5114 9.088 55.6L21.888 65.2ZM24.7004 62.5937C25.5964 62.1553 26.5253 61.936 27.584 61.936V45.936C24.1201 45.936 20.7822 46.6981 17.6676 48.2223L24.7004 62.5937ZM27.584 61.936C29.159 61.936 30.0123 62.2806 30.5117 62.5994L39.1203 49.1126C35.609 46.8714 31.641 45.936 27.584 45.936V61.936ZM30.576 62.64C31.2872 63.0845 31.7806 63.6338 32.1603 64.4565L46.6877 57.7515C45.0194 54.1369 42.4408 51.1875 39.056 49.072L30.576 62.64ZM32.214 64.5704C32.6831 65.5461 33.024 66.8685 33.024 68.72H49.024C49.024 64.8542 48.2983 61.0992 46.634 57.6376L32.214 64.5704ZM33.024 68.72C33.024 70.7357 32.5198 72.4481 31.5105 74.0443L45.0336 82.5957C47.6935 78.3893 49.024 73.7016 49.024 68.72H33.024ZM31.4656 74.1161C30.4098 75.8254 29.0241 77.1479 27.1884 78.1562L34.8916 92.1798C39.1146 89.8601 42.5502 86.6172 45.0784 82.5239L31.4656 74.1161ZM27.265 78.1147C25.404 79.1107 23.459 79.6 21.312 79.6V95.6C26.077 95.6 30.6174 94.4679 34.815 92.2213L27.265 78.1147ZM22.272 90.608C25.7387 90.608 28.8432 89.4188 31.4689 87.6913L22.6751 74.3247C22.3595 74.5323 22.1768 74.6017 22.1262 74.6185C22.086 74.6319 22.1445 74.608 22.272 74.608V90.608ZM31.4689 87.6913C34.4336 85.7409 36.6329 83.0407 38.2348 80.0217L24.1012 72.5223C23.4844 73.6847 22.9531 74.1418 22.6751 74.3247L31.4689 87.6913ZM38.2657 79.9628C40.0864 76.4615 40.832 72.6006 40.832 68.656H24.832C24.832 70.5994 24.4682 71.8159 24.0703 72.5812L38.2657 79.9628ZM40.832 68.656C40.832 64.5482 39.7823 60.4993 37.2019 57.0319L24.3661 66.5841C24.5164 66.786 24.832 67.3025 24.832 68.656H40.832ZM37.2539 57.1026C33.8793 52.4625 28.7188 50.992 24 50.992V66.992C24.8174 66.992 25.0756 67.1174 24.997 67.0847C24.9479 67.0644 24.8311 67.0078 24.6856 66.8948C24.5378 66.7801 24.4105 66.6459 24.3141 66.5134L37.2539 57.1026ZM24 50.992C20.5898 50.992 17.5759 52.2093 15.0824 53.8716L23.9576 67.1844C24.2471 66.9914 24.3898 66.9425 24.3866 66.9436C24.3833 66.9447 24.345 66.9575 24.2747 66.9697C24.2036 66.9821 24.1103 66.992 24 66.992V50.992ZM15.0824 53.8716C12.2238 55.7773 10.1101 58.3888 8.58732 61.3075L22.7727 68.7085C23.2979 67.7019 23.7442 67.3267 23.9576 67.1844L15.0824 53.8716ZM8.58732 61.3075C6.84389 64.649 6.144 68.3249 6.144 72.048H22.144C22.144 70.3098 22.4681 69.2923 22.7727 68.7085L8.58732 61.3075ZM6.144 72.048C6.144 76.1796 7.0364 80.2502 9.28001 83.84L22.848 75.36C22.5316 74.8538 22.144 73.8897 22.144 72.048H6.144ZM9.32062 83.9043C12.3832 88.7023 17.3196 90.608 22.272 90.608V74.608C21.764 74.608 21.7799 74.5188 22.0644 74.6566C22.2067 74.7256 22.3665 74.8285 22.5174 74.964C22.6669 75.0982 22.7602 75.2218 22.8074 75.2957L9.32062 83.9043ZM49.541 83.12L43.6403 88.522L43.68 88.5654L43.7203 88.6081L49.541 83.12ZM49.925 52.208L42.8779 48.4215L42.8727 48.431L42.8676 48.4405L49.925 52.208ZM61.125 38.384L66.1077 44.6428L66.1152 44.6368L61.125 38.384ZM76.549 33.904L72.0315 40.5065L72.2284 40.6412L72.433 40.7639L76.549 33.904ZM78.725 36.784L81.5002 44.2872L89.3644 41.3785L86.0897 33.6596L78.725 36.784ZM69.829 41.072L65.6826 34.2304L65.6594 34.2445L65.6362 34.2587L69.829 41.072ZM61.509 48.368L55.4985 43.0885L55.4782 43.1116L55.4581 43.1348L61.509 48.368ZM54.469 60.4L47.0502 57.4064L42.6142 68.4H54.469V60.4ZM54.853 60.4V68.4H58.853L61.253 65.2L54.853 60.4ZM60.549 55.408L63.9405 62.6535L64.0032 62.6242L64.0654 62.5937L60.549 55.408ZM74.181 55.856L69.8767 62.5994L69.9088 62.6198L69.941 62.64L74.181 55.856ZM78.789 61.104L71.5253 64.4565L71.5517 64.5136L71.579 64.5704L78.789 61.104ZM77.637 78.32L70.8755 74.0443L70.8528 74.0801L70.8306 74.1161L77.637 78.32ZM70.405 85.168L74.18 92.2213L74.2184 92.2008L74.2566 92.1798L70.405 85.168ZM66.437 81.008L62.0401 74.3247L62.0401 74.3247L66.437 81.008ZM70.533 76.272L77.5998 80.0217L77.6154 79.9923L77.6307 79.9628L70.533 76.272ZM70.149 61.808L63.6791 66.5134L63.7049 66.5489L63.7311 66.5841L70.149 61.808ZM58.885 60.528L54.4474 53.8716L54.4474 53.8716L58.885 60.528ZM55.045 65.008L47.9523 61.3075L47.9523 61.3075L55.045 65.008ZM55.429 79.6L48.645 83.84L48.6652 83.8722L48.6856 83.9043L55.429 79.6ZM60.677 79.6C57.9746 79.6 56.4734 78.8109 55.3617 77.6319L43.7203 88.6081C48.2406 93.4024 54.1634 95.6 60.677 95.6V79.6ZM55.4417 77.718C54.4697 76.6563 53.381 74.5046 53.381 70H37.381C37.381 76.9301 39.0656 83.5251 43.6403 88.522L55.4417 77.718ZM53.381 70C53.381 65.1806 54.5464 60.5386 56.9824 55.9755L42.8676 48.4405C39.2449 55.2268 37.381 62.4461 37.381 70H53.381ZM56.9721 55.9945C59.6099 51.0854 62.6834 47.369 66.1077 44.6428L56.1423 32.1252C50.7773 36.3964 46.3841 41.8959 42.8779 48.4215L56.9721 55.9945ZM66.1152 44.6368C69.9107 41.6077 72.1773 41.072 73.157 41.072V25.072C66.9687 25.072 61.214 28.0776 56.1348 32.1312L66.1152 44.6368ZM73.157 41.072C73.3902 41.072 73.3762 41.096 73.1872 41.0497C72.988 41.0008 72.5515 40.8622 72.0315 40.5065L81.0665 27.3015C78.43 25.4977 75.4922 25.072 73.157 25.072V41.072ZM72.433 40.7639C71.8175 40.3946 71.4795 40.002 71.3501 39.8307C71.2272 39.6681 71.2524 39.654 71.3603 39.9084L86.0897 33.6596C85.1644 31.4787 83.5599 28.781 80.665 27.0441L72.433 40.7639ZM75.9498 29.2808C72.3622 30.6077 68.9373 32.2579 65.6826 34.2304L73.9754 47.9136C76.3527 46.4728 78.8585 45.2643 81.5002 44.2872L75.9498 29.2808ZM65.6362 34.2587C62.0199 36.4841 58.6536 39.4964 55.4985 43.0885L67.5195 53.6475C69.911 50.9249 72.0914 49.0732 74.0218 47.8853L65.6362 34.2587ZM55.4581 43.1348C52.0252 47.1041 49.2616 51.9259 47.0502 57.4064L61.8878 63.3936C63.6017 59.1461 65.5314 55.9466 67.5599 53.6012L55.4581 43.1348ZM54.469 68.4H54.853V52.4H54.469V68.4ZM61.253 65.2C62.5206 63.5099 63.4651 62.8761 63.9405 62.6535L57.1575 48.1625C53.6222 49.8173 50.7694 52.5114 48.453 55.6L61.253 65.2ZM64.0654 62.5937C64.9614 62.1553 65.8903 61.936 66.949 61.936V45.936C63.4851 45.936 60.1472 46.6981 57.0326 48.2223L64.0654 62.5937ZM66.949 61.936C68.524 61.936 69.3773 62.2806 69.8767 62.5994L78.4853 49.1126C74.974 46.8714 71.006 45.936 66.949 45.936V61.936ZM69.941 62.64C70.6522 63.0845 71.1456 63.6338 71.5253 64.4565L86.0527 57.7515C84.3844 54.1369 81.8058 51.1875 78.421 49.072L69.941 62.64ZM71.579 64.5704C72.0481 65.5461 72.389 66.8685 72.389 68.72H88.389C88.389 64.8542 87.6632 61.0992 85.999 57.6376L71.579 64.5704ZM72.389 68.72C72.389 70.7357 71.8848 72.4481 70.8755 74.0443L84.3985 82.5957C87.0585 78.3893 88.389 73.7016 88.389 68.72H72.389ZM70.8306 74.1161C69.7748 75.8254 68.3891 77.1479 66.5534 78.1562L74.2566 92.1798C78.4796 89.8601 81.9152 86.6172 84.4434 82.5239L70.8306 74.1161ZM66.63 78.1147C64.7689 79.1107 62.824 79.6 60.677 79.6V95.6C65.442 95.6 69.9824 94.4679 74.18 92.2213L66.63 78.1147ZM61.637 90.608C65.1037 90.608 68.2082 89.4188 70.8339 87.6913L62.0401 74.3247C61.7245 74.5323 61.5418 74.6017 61.4912 74.6185C61.451 74.6319 61.5095 74.608 61.637 74.608V90.608ZM70.8339 87.6913C73.7986 85.7409 75.9979 83.0407 77.5998 80.0217L63.4662 72.5223C62.8494 73.6847 62.3181 74.1418 62.0401 74.3247L70.8339 87.6913ZM77.6307 79.9628C79.4514 76.4615 80.197 72.6006 80.197 68.656H64.197C64.197 70.5994 63.8332 71.8159 63.4353 72.5812L77.6307 79.9628ZM80.197 68.656C80.197 64.5482 79.1473 60.4993 76.5669 57.0319L63.7311 66.5841C63.8814 66.786 64.197 67.3025 64.197 68.656H80.197ZM76.6189 57.1026C73.2443 52.4625 68.0838 50.992 63.365 50.992V66.992C64.1824 66.992 64.4406 67.1174 64.362 67.0847C64.3129 67.0644 64.1961 67.0078 64.0506 66.8948C63.9028 66.7801 63.7755 66.6459 63.6791 66.5134L76.6189 57.1026ZM63.365 50.992C59.9548 50.992 56.9409 52.2093 54.4474 53.8716L63.3226 67.1844C63.6121 66.9914 63.7548 66.9425 63.7516 66.9436C63.7483 66.9447 63.71 66.9575 63.6397 66.9697C63.5686 66.9821 63.4753 66.992 63.365 66.992V50.992ZM54.4474 53.8716C51.5888 55.7773 49.4751 58.3888 47.9523 61.3075L62.1377 68.7085C62.6629 67.7019 63.1092 67.3267 63.3226 67.1844L54.4474 53.8716ZM47.9523 61.3075C46.2089 64.649 45.509 68.3249 45.509 72.048H61.509C61.509 70.3098 61.8331 69.2923 62.1377 68.7085L47.9523 61.3075ZM45.509 72.048C45.509 76.1796 46.4014 80.2502 48.645 83.84L62.213 75.36C61.8966 74.8538 61.509 73.8897 61.509 72.048H45.509ZM48.6856 83.9043C51.7482 88.7023 56.6846 90.608 61.637 90.608V74.608C61.129 74.608 61.1449 74.5188 61.4294 74.6566C61.5717 74.7256 61.7315 74.8285 61.8824 74.964C62.0319 75.0982 62.1252 75.2218 62.1724 75.2957L48.6856 83.9043Z" fill="#FBFBFB"/>
<ellipse cx="24" cy="71" rx="11" ry="14" fill="#1E56A0"/>
<ellipse cx="64" cy="71" rx="11" ry="14" fill="#1E56A0"/>
</svg>
