<svg width="24" height="24" viewBox="0 0 24 24" fill="none" xmlns="http://www.w3.org/2000/svg">
<g clip-path="url(#clip0_128_1040)">
<path d="M20.7826 2H2.98257C2.69083 2 2.41104 2.11589 2.20475 2.32218C1.99846 2.52847 1.88257 2.80826 1.88257 3.1V20.9C1.88257 21.1917 1.99846 21.4715 2.20475 21.6778C2.41104 21.8841 2.69083 22 2.98257 22H12.5626V14.25H9.96257V11.25H12.5626V9C12.5087 8.47176 12.5711 7.93813 12.7453 7.43654C12.9195 6.93495 13.2013 6.47755 13.571 6.09641C13.9407 5.71528 14.3893 5.41964 14.8854 5.23024C15.3814 5.04083 15.9129 4.96225 16.4426 5C17.2209 4.99521 17.9989 5.03528 18.7726 5.12V7.82H17.1826C15.9226 7.82 15.6826 8.42 15.6826 9.29V11.22H18.6826L18.2926 14.22H15.6826V22H20.7826C20.927 22 21.0701 21.9715 21.2035 21.9163C21.337 21.861 21.4582 21.78 21.5604 21.6778C21.6625 21.5757 21.7436 21.4544 21.7988 21.321C21.8541 21.1875 21.8826 21.0445 21.8826 20.9V3.1C21.8826 2.95555 21.8541 2.81251 21.7988 2.67905C21.7436 2.54559 21.6625 2.42433 21.5604 2.32218C21.4582 2.22004 21.337 2.13901 21.2035 2.08373C21.0701 2.02845 20.927 2 20.7826 2Z" fill="#FBFBFB"/>
</g>
<defs>
<clipPath id="clip0_128_1040">
<rect width="24" height="24" fill="white"/>
</clipPath>
</defs>
</svg>
