<svg width="24" height="24" viewBox="0 0 24 24" fill="none" xmlns="http://www.w3.org/2000/svg">
<g clip-path="url(#clip0_128_1041)">
<path d="M7.68257 2H16.0826C19.2826 2 21.8826 4.6 21.8826 7.8V16.2C21.8826 17.7383 21.2715 19.2135 20.1838 20.3012C19.0961 21.3889 17.6208 22 16.0826 22H7.68257C4.48257 22 1.88257 19.4 1.88257 16.2V7.8C1.88257 6.26174 2.49364 4.78649 3.58135 3.69878C4.66906 2.61107 6.14431 2 7.68257 2ZM7.48257 4C6.52779 4 5.61212 4.37928 4.93698 5.05442C4.26185 5.72955 3.88257 6.64522 3.88257 7.6V16.4C3.88257 18.39 5.49257 20 7.48257 20H16.2826C17.2373 20 18.153 19.6207 18.8282 18.9456C19.5033 18.2705 19.8826 17.3548 19.8826 16.4V7.6C19.8826 5.61 18.2726 4 16.2826 4H7.48257ZM17.1326 5.5C17.4641 5.5 17.782 5.6317 18.0165 5.86612C18.2509 6.10054 18.3826 6.41848 18.3826 6.75C18.3826 7.08152 18.2509 7.39946 18.0165 7.63388C17.782 7.8683 17.4641 8 17.1326 8C16.801 8 16.4831 7.8683 16.2487 7.63388C16.0143 7.39946 15.8826 7.08152 15.8826 6.75C15.8826 6.41848 16.0143 6.10054 16.2487 5.86612C16.4831 5.6317 16.801 5.5 17.1326 5.5ZM11.8826 7C13.2087 7 14.4804 7.52678 15.4181 8.46447C16.3558 9.40215 16.8826 10.6739 16.8826 12C16.8826 13.3261 16.3558 14.5979 15.4181 15.5355C14.4804 16.4732 13.2087 17 11.8826 17C10.5565 17 9.28472 16.4732 8.34703 15.5355C7.40935 14.5979 6.88257 13.3261 6.88257 12C6.88257 10.6739 7.40935 9.40215 8.34703 8.46447C9.28472 7.52678 10.5565 7 11.8826 7ZM11.8826 9C11.0869 9 10.3239 9.31607 9.76125 9.87868C9.19864 10.4413 8.88257 11.2044 8.88257 12C8.88257 12.7956 9.19864 13.5587 9.76125 14.1213C10.3239 14.6839 11.0869 15 11.8826 15C12.6782 15 13.4413 14.6839 14.0039 14.1213C14.5665 13.5587 14.8826 12.7956 14.8826 12C14.8826 11.2044 14.5665 10.4413 14.0039 9.87868C13.4413 9.31607 12.6782 9 11.8826 9Z" fill="#FBFBFB"/>
</g>
<defs>
<clipPath id="clip0_128_1041">
<rect width="24" height="24" fill="white"/>
</clipPath>
</defs>
</svg>
