<svg width="24" height="24" viewBox="0 0 24 24" fill="none" xmlns="http://www.w3.org/2000/svg">
<g clip-path="url(#clip0_128_1039)">
<path d="M22.3426 6C21.5726 6.35 20.7426 6.58 19.8826 6.69C20.7626 6.16 21.4426 5.32 21.7626 4.31C20.9326 4.81 20.0126 5.16 19.0426 5.36C18.2526 4.5 17.1426 4 15.8826 4C13.5326 4 11.6126 5.92 11.6126 8.29C11.6126 8.63 11.6526 8.96 11.7226 9.27C8.16261 9.09 4.99261 7.38 2.88261 4.79C2.51261 5.42 2.30261 6.16 2.30261 6.94C2.30261 8.43 3.05261 9.75 4.21261 10.5C3.50261 10.5 2.84261 10.3 2.26261 10V10.03C2.26261 12.11 3.74261 13.85 5.70261 14.24C5.07333 14.4122 4.4127 14.4362 3.77261 14.31C4.04421 15.1625 4.57614 15.9084 5.29362 16.4429C6.0111 16.9775 6.87805 17.2737 7.77261 17.29C6.25624 18.4904 4.3766 19.1393 2.44261 19.13C2.10261 19.13 1.76261 19.11 1.42261 19.07C3.32261 20.29 5.58261 21 8.00261 21C15.8826 21 20.2126 14.46 20.2126 8.79C20.2126 8.6 20.2126 8.42 20.2026 8.23C21.0426 7.63 21.7626 6.87 22.3426 6Z" fill="#FBFBFB"/>
</g>
<defs>
<clipPath id="clip0_128_1039">
<rect width="24" height="24" fill="white"/>
</clipPath>
</defs>
</svg>
